<?xml version="1.0" encoding="utf-8"?>
<!-- Generator: Adobe Illustrator 24.0.0, SVG Export Plug-In . SVG Version: 6.00 Build 0)  -->
<svg version="1.1" id="Layer_1" xmlns="http://www.w3.org/2000/svg" xmlns:xlink="http://www.w3.org/1999/xlink" x="0px" y="0px"
	 viewBox="0 0 390 389.8" style="enable-background:new 0 0 390 389.8;" xml:space="preserve">
<style type="text/css">
	.st0{fill:#4D4D4D;}
	.st1{fill:#27C399;}
</style>
<g>
	<path class="st0" d="M232.6,104.1c5.5,11.4,13,21.9,22.2,31.1c9.2,9.2,19.7,16.6,31.1,22.2c9,4.4,18.6,7.6,28.5,9.5
		c7.1,1.4,14.4,2.1,21.8,2.1c15.4,0,30.3-3,44-8.7c1.8-0.8,3.6-1.6,5.4-2.4c3.3-1.6,5-5.2,4.2-8.7c0-0.1,0-0.2-0.1-0.3
		c-2.7-11.6-14.8-18.2-26-14.4c-8.7,3-18,4.5-27.5,4.5c-1.8,0-3.5,0-5.3-0.2c-11.1-0.7-21.7-3.5-31.5-8.2
		c-8.5-4.1-16.4-9.7-23.3-16.6c-6.9-6.9-12.5-14.8-16.6-23.3c-4.7-9.8-7.5-20.5-8.2-31.5c-0.1-1.7-0.2-3.5-0.2-5.3
		c0-12.6,2.7-24.8,7.9-35.8c2.7-5.9-0.2-12.8-6.4-14.7c-0.1,0-0.2-0.1-0.3-0.1c-10.3-3.1-21.2,2.4-24.7,12.5
		c-4.2,12.1-6.4,24.9-6.4,38.1c0,7.4,0.7,14.7,2.1,21.8C225,85.5,228.2,95.1,232.6,104.1z"/>
	<path class="st0" d="M314.3,223c-9.9,1.9-19.5,5.1-28.5,9.4c-11.4,5.5-21.9,13-31.1,22.2c-9.2,9.2-16.7,19.7-22.2,31.1
		c-4.4,9-7.6,18.6-9.5,28.5c-1.4,7.1-2.1,14.4-2.1,21.8c0,15.4,3,30.3,8.7,44c0.8,1.8,1.6,3.6,2.4,5.4c1.6,3.3,5.2,5,8.7,4.2
		c0.1,0,0.2,0,0.3-0.1c11.6-2.7,18.2-14.8,14.4-26c-3-8.7-4.5-18-4.5-27.5c0-1.8,0-3.5,0.2-5.3c0.7-11.1,3.5-21.7,8.2-31.5
		c4.1-8.5,9.7-16.4,16.6-23.3c6.9-6.9,14.8-12.5,23.3-16.6c9.8-4.7,20.5-7.5,31.5-8.2c1.7-0.1,3.5-0.2,5.3-0.2
		c12.6,0,24.8,2.7,35.8,7.9c5.9,2.7,12.8-0.2,14.7-6.4c0-0.1,0.1-0.2,0.1-0.3c3.1-10.3-2.4-21.2-12.5-24.7
		c-12.1-4.2-24.9-6.4-38.1-6.4C328.7,221,321.4,221.6,314.3,223z"/>
	<path class="st0" d="M157.4,285.7c-5.5-11.4-13-21.9-22.2-31.1c-9.2-9.2-19.7-16.7-31.1-22.2c-9-4.4-18.6-7.6-28.5-9.4
		c-7.1-1.4-14.4-2.1-21.8-2.1c-15.4,0-30.3,3-44,8.7c-1.8,0.8-3.6,1.6-5.4,2.4c-3.3,1.6-5,5.2-4.2,8.7c0,0.1,0,0.2,0.1,0.3
		c2.7,11.6,14.8,18.2,26,14.4c8.7-3,18-4.5,27.5-4.5c1.8,0,3.5,0,5.3,0.2c11.1,0.7,21.7,3.5,31.5,8.2c8.5,4.1,16.4,9.7,23.3,16.6
		c6.9,6.9,12.5,14.8,16.6,23.3c4.7,9.8,7.5,20.5,8.2,31.5c0.1,1.7,0.2,3.5,0.2,5.3c0,9.5-1.6,18.8-4.5,27.5
		c-3.8,11.2,2.8,23.3,14.4,26c0.1,0,0.2,0,0.3,0.1c3.6,0.8,7.2-1,8.8-4.3c7.3-15.2,11.1-32,11.1-49.4c0-7.4-0.7-14.7-2.1-21.8
		C165,304.3,161.8,294.7,157.4,285.7z"/>
	<path class="st0" d="M75.7,166.7c9.8-1.9,19.4-5,28.5-9.4c11.2-5.4,21.8-12.8,31.1-22.1s16.7-19.8,22.1-31.1
		c4.4-9.1,7.6-18.7,9.4-28.5c4.6-23.8,1.6-48.8-9-71.1c-1.6-3.3-5.3-5.2-8.9-4.3c-0.1,0-0.2,0-0.3,0.1C137.2,3,130.4,15,134.2,26.1
		c3.7,10.6,5.2,21.9,4.5,33c-0.6,10.8-3.4,21.6-8.2,31.5c-4,8.4-9.5,16.4-16.5,23.3c-7,7-14.9,12.5-23.3,16.5
		c-10,4.8-20.7,7.5-31.5,8.2c-1.7,0.1-3.5,0.2-5.2,0.2c-9.3,0-18.7-1.5-27.6-4.6c-11.2-3.8-23.2,2.9-25.9,14.4c0,0.1,0,0.2-0.1,0.3
		c-0.9,3.6,1,7.3,4.3,8.9c15.5,7.4,32.4,11,49.3,11C61.2,168.8,68.5,168.1,75.7,166.7z"/>
</g>
<g>
	<path class="st1" d="M330.8,251.1c-7.2-8.1-12.8-17.7-16.5-28.1c-3.1-8.8-4.8-18.3-4.8-28.1s1.7-19.3,4.8-28.1
		c3.7-10.5,9.3-20,16.5-28.1c9.3-10.5,21.2-18.8,34.7-23.7c6.1-2.2,8.7-9.3,5.6-15c0-0.1-0.1-0.2-0.1-0.3
		c-5.1-9.4-16.7-13.1-26.3-8.5c-18.4,8.9-34,22.5-45.4,39.2c-5.6,8.2-10.1,17.3-13.5,26.8c-4.1,11.8-6.3,24.4-6.3,37.6
		c0,13.1,2.2,25.8,6.3,37.6c3.3,9.6,7.9,18.6,13.5,26.8c13.6,20.1,33.4,35.6,56.6,43.9c3.5,1.2,7.3-0.1,9.3-3.2
		c0.1-0.1,0.1-0.2,0.2-0.3c6.2-10,2.6-23.3-8-28.4C347.2,266.4,338.2,259.5,330.8,251.1z"/>
	<path class="st1" d="M259.4,299.2c-8.2-5.6-17.3-10.1-26.8-13.5c-11.8-4.1-24.4-6.3-37.6-6.3c-13.2,0-25.8,2.2-37.6,6.3
		c-9.6,3.3-18.6,7.9-26.8,13.5c-16.7,11.4-30.4,27-39.2,45.4c-4.6,9.6-0.9,21.2,8.5,26.3c0.1,0,0.2,0.1,0.3,0.1
		c5.7,3.1,12.8,0.4,15-5.6c4.9-13.5,13.1-25.4,23.7-34.7c8.1-7.2,17.6-12.9,28.1-16.5c8.8-3.1,18.3-4.8,28.1-4.8s19.3,1.7,28.1,4.8
		c10.5,3.7,20,9.3,28.1,16.5c8.4,7.4,15.3,16.4,20.2,26.5c5.2,10.6,18.4,14.2,28.4,8c0.1-0.1,0.2-0.1,0.3-0.2
		c3.1-1.9,4.4-5.8,3.2-9.3C295,332.6,279.5,312.8,259.4,299.2z"/>
	<path class="st1" d="M104.2,232.5c4.1-11.8,6.3-24.4,6.3-37.6c0-13.2-2.2-25.8-6.3-37.6c-3.3-9.6-7.9-18.6-13.5-26.8
		c-13.6-20-33.4-35.6-56.6-43.9c-3.5-1.2-7.3,0.1-9.3,3.2c-0.1,0.1-0.1,0.2-0.2,0.3c-6.2,10-2.6,23.3,8,28.4
		c10.1,4.9,19.1,11.8,26.5,20.1c7.2,8.1,12.9,17.7,16.5,28.1c3.1,8.8,4.8,18.3,4.8,28.2c0,9.9-1.7,19.3-4.8,28.1
		c-3.7,10.4-9.3,20-16.5,28.1c-7.4,8.4-16.4,15.3-26.5,20.2c-10.6,5.2-14.2,18.4-8,28.4c0.1,0.1,0.1,0.2,0.2,0.3
		c1.9,3.1,5.8,4.4,9.3,3.2c23.2-8.3,43-23.9,56.6-43.9C96.3,251,100.9,242,104.2,232.5z"/>
	<path class="st1" d="M130.6,90.6c8.2,5.6,17.2,10.2,26.8,13.5c11.8,4.1,24.5,6.3,37.6,6.3c13.2,0,25.8-2.2,37.6-6.3
		c9.6-3.3,18.6-7.9,26.8-13.5C279.5,77,295,57.2,303.3,34c1.2-3.5-0.1-7.3-3.2-9.3c-0.1-0.1-0.2-0.1-0.3-0.2
		c-10-6.2-23.3-2.6-28.4,8c-4.9,10.1-11.8,19.1-20.2,26.5c-8.1,7.2-17.6,12.8-28.1,16.5c-8.8,3.1-18.3,4.8-28.1,4.8
		c-9.9,0-19.4-1.7-28.2-4.8c-10.5-3.7-20-9.4-28.1-16.5c-8.3-7.4-15.2-16.4-20.2-26.5c-5.2-10.6-18.4-14.2-28.4-8
		c-0.1,0.1-0.2,0.1-0.3,0.2c-3.1,1.9-4.4,5.8-3.2,9.3C95,57.2,110.5,77,130.6,90.6z"/>
</g>
</svg>
